<svg xmlns="http://www.w3.org/2000/svg" width="1200" height="700" viewBox="0 0 1200 700">
<rect width="100%" height="100%" fill="white"/>
<text x="600.0" y="36" text-anchor="middle" font-size="28" font-family="Arial">Резервный узел: размеры полных копий</text>
<line x1="110" y1="610.0" x2="1160" y2="610.0" stroke="#d0d0d0"/>
<text x="98" y="615.0" text-anchor="end" font-size="16" font-family="Arial">0.0</text>
<line x1="110" y1="502.0" x2="1160" y2="502.0" stroke="#d0d0d0"/>
<text x="98" y="507.0" text-anchor="end" font-size="16" font-family="Arial">6.0</text>
<line x1="110" y1="394.0" x2="1160" y2="394.0" stroke="#d0d0d0"/>
<text x="98" y="399.0" text-anchor="end" font-size="16" font-family="Arial">12.0</text>
<line x1="110" y1="286.0" x2="1160" y2="286.0" stroke="#d0d0d0"/>
<text x="98" y="291.0" text-anchor="end" font-size="16" font-family="Arial">18.0</text>
<line x1="110" y1="178.0" x2="1160" y2="178.0" stroke="#d0d0d0"/>
<text x="98" y="183.0" text-anchor="end" font-size="16" font-family="Arial">24.0</text>
<line x1="110" y1="70.0" x2="1160" y2="70.0" stroke="#d0d0d0"/>
<text x="98" y="75.0" text-anchor="end" font-size="16" font-family="Arial">30.0</text>
<line x1="110.0" y1="70" x2="110.0" y2="610" stroke="#ececec"/>
<text x="110.0" y="634" text-anchor="middle" font-size="15" font-family="Arial">7</text>
<line x1="460.0" y1="70" x2="460.0" y2="610" stroke="#ececec"/>
<text x="460.0" y="634" text-anchor="middle" font-size="15" font-family="Arial">14</text>
<line x1="810.0" y1="70" x2="810.0" y2="610" stroke="#ececec"/>
<text x="810.0" y="634" text-anchor="middle" font-size="15" font-family="Arial">21</text>
<line x1="1160.0" y1="70" x2="1160.0" y2="610" stroke="#ececec"/>
<text x="1160.0" y="634" text-anchor="middle" font-size="15" font-family="Arial">28</text>
<line x1="110" y1="610" x2="1160" y2="610" stroke="#222" stroke-width="2"/>
<line x1="110" y1="70" x2="110" y2="610" stroke="#222" stroke-width="2"/>
<text x="600.0" y="676" text-anchor="middle" font-size="20" font-family="Arial">Дни</text>
<text x="28" y="350.0" transform="rotate(-90 28 350.0)" text-anchor="middle" font-size="20" font-family="Arial">Объем, GiB</text>
<rect x="31.2" y="492.8" width="157.5" height="117.2" fill="#2b7bbb"/>
<rect x="381.2" y="375.9" width="157.5" height="234.1" fill="#2b7bbb"/>
<rect x="731.2" y="259.0" width="157.5" height="351.0" fill="#2b7bbb"/>
<rect x="1081.2" y="142.1" width="157.5" height="467.9" fill="#2b7bbb"/>
</svg>